<?xml version="1.0" encoding="UTF-8"?>
<svg id="Layer_2" data-name="Layer 2" xmlns="http://www.w3.org/2000/svg" xmlns:xlink="http://www.w3.org/1999/xlink" viewBox="0 0 712.31 690.67">
  <defs>
    <style>
      .cls-1 {
        fill: url(#linear-gradient);
      }

      .cls-1, .cls-2, .cls-3, .cls-4 {
        stroke-width: 2px;
      }

      .cls-1, .cls-2, .cls-3, .cls-4, .cls-5, .cls-6 {
        stroke-miterlimit: 10;
      }

      .cls-1, .cls-3, .cls-4 {
        stroke: #fff;
      }

      .cls-2 {
        fill: #35469d;
        stroke: #35469d;
      }

      .cls-3 {
        fill: url(#linear-gradient-3);
      }

      .cls-4 {
        fill: url(#linear-gradient-2);
      }

      .cls-5 {
        stroke: #79973a;
      }

      .cls-5, .cls-6 {
        fill: #fff;
        stroke-width: 4px;
      }

      .cls-6 {
        stroke: #8ec73f;
      }
    </style>
    <linearGradient id="linear-gradient" x1="478.06" y1="-4.18" x2="98.58" y2="524.38" gradientUnits="userSpaceOnUse">
      <stop offset="0" stop-color="#344200"/>
      <stop offset=".01" stop-color="#374121"/>
      <stop offset=".03" stop-color="#3a4041"/>
      <stop offset=".04" stop-color="#3c3f5c"/>
      <stop offset=".06" stop-color="#3e3e72"/>
      <stop offset=".08" stop-color="#403e83"/>
      <stop offset=".11" stop-color="#413e8f"/>
      <stop offset=".15" stop-color="#413e96"/>
      <stop offset=".25" stop-color="#423e98"/>
      <stop offset=".3" stop-color="#433a92"/>
      <stop offset=".36" stop-color="#493182"/>
      <stop offset=".43" stop-color="#522369"/>
      <stop offset=".49" stop-color="#5b144f"/>
      <stop offset=".79" stop-color="#321c2c"/>
      <stop offset=".89" stop-color="#231f20"/>
    </linearGradient>
    <linearGradient id="linear-gradient-2" x1="596.78" y1="81.05" x2="217.3" y2="609.62" xlink:href="#linear-gradient"/>
    <linearGradient id="linear-gradient-3" x1="794.74" y1="223.18" x2="415.26" y2="751.74" xlink:href="#linear-gradient"/>
  </defs>
  <g id="Layer_1-2" data-name="Layer 1">
    <g>
      <path class="cls-6" d="M684.07,120c-8.12-11.27-21.26-18-35.15-18H168.96l-10.63-63.79c-3.5-20.98-21.47-36.21-42.74-36.21H48.92C25.03,2,5.59,21.44,5.59,45.33s19.44,43.33,43.33,43.33h29.96l60.63,363.79c3.5,20.98,21.47,36.21,42.74,36.21h366.67c18.68,0,35.2-11.91,41.11-29.63l100-300c4.39-13.18,2.17-27.77-5.96-39.04ZM588.8,188.67l-71.11,213.33H218.96l-35.56-213.33h405.39Z"/>
      <path class="cls-6" d="M215.59,535.33c-42.27,0-76.67,34.39-76.67,76.67s34.39,76.67,76.67,76.67,76.67-34.39,76.67-76.67-34.39-76.67-76.67-76.67Z"/>
      <path class="cls-6" d="M515.59,535.33c-42.27,0-76.67,34.39-76.67,76.67s34.39,76.67,76.67,76.67,76.67-34.39,76.67-76.67-34.39-76.67-76.67-76.67Z"/>
    </g>
    <g>
      <path class="cls-1" d="M548.92,478.67H182.25c-16.29,0-30.2-11.78-32.88-27.85L87.35,78.67h-38.43c-18.41,0-33.33-14.92-33.33-33.33S30.51,12,48.92,12h66.67c16.29,0,30.2,11.78,32.88,27.85l12.02,72.15h488.43c10.71,0,20.78,5.15,27.04,13.84,6.26,8.69,7.97,19.87,4.58,30.03l-100,300c-4.54,13.61-17.27,22.79-31.62,22.79ZM210.49,412h314.4l77.78-233.33H171.6l38.89,233.33Z"/>
      <path class="cls-4" d="M215.59,678.67c-36.76,0-66.67-29.91-66.67-66.67s29.91-66.67,66.67-66.67,66.67,29.91,66.67,66.67-29.91,66.67-66.67,66.67ZM215.59,612s-.04,0-.04,0h.04Z"/>
      <path class="cls-3" d="M515.59,678.67c-36.76,0-66.67-29.91-66.67-66.67s29.91-66.67,66.67-66.67,66.67,29.91,66.67,66.67-29.91,66.67-66.67,66.67ZM515.59,612s-.04,0-.04,0h.04Z"/>
    </g>
    <g>
      <path class="cls-2" d="M58.44,299.37h42.48c.4,6.72-.28,13-2.04,18.84-1.76,5.84-4.48,11-8.16,15.48-3.68,4.48-8.28,7.98-13.8,10.5-5.52,2.52-11.84,3.78-18.96,3.78-6.72,0-12.88-1.06-18.48-3.18-5.6-2.12-10.44-5.16-14.52-9.12s-7.26-8.68-9.54-14.16c-2.28-5.48-3.42-11.54-3.42-18.18s1.16-12.66,3.48-18.06c2.32-5.4,5.6-10.02,9.84-13.86,4.24-3.84,9.2-6.8,14.88-8.88,5.68-2.08,11.84-3.12,18.48-3.12,5.92,0,11.24.84,15.96,2.52,4.72,1.68,8.9,4.02,12.54,7.02,3.64,3,6.78,6.46,9.42,10.38l-18,9.36c-1.92-3.36-4.5-6.14-7.74-8.34-3.24-2.2-7.3-3.3-12.18-3.3s-8.9,1.04-12.78,3.12c-3.88,2.08-6.96,5.06-9.24,8.94-2.28,3.88-3.42,8.62-3.42,14.22s1.1,10.3,3.3,14.34c2.2,4.04,5.2,7.16,9,9.36,3.8,2.2,8.18,3.3,13.14,3.3,3.04,0,5.8-.38,8.28-1.14,2.48-.76,4.6-1.84,6.36-3.24,1.76-1.4,3.26-3.04,4.5-4.92,1.24-1.88,2.22-3.9,2.94-6.06h-22.32v-15.6Z"/>
      <path class="cls-2" d="M130.56,345.33h-17.88v-55.2h17.88v55.2ZM143.46,306.57c-1.08-.56-2.42-.84-4.02-.84-1.76,0-3.32.48-4.68,1.44-1.36.96-2.4,2.36-3.12,4.2-.72,1.84-1.08,4.08-1.08,6.72l-4.32-6.36c0-4.4.86-8.32,2.58-11.76,1.72-3.44,3.98-6.16,6.78-8.16,2.8-2,5.72-3,8.76-3,2,0,3.92.4,5.76,1.2,1.84.8,3.24,1.92,4.2,3.36l-7.8,15.48c-.96-.96-1.98-1.72-3.06-2.28Z"/>
      <path class="cls-2" d="M161.04,302.49c2.72-4.32,6.48-7.68,11.28-10.08,4.8-2.4,10.2-3.6,16.2-3.6s11.38,1.2,16.14,3.6c4.76,2.4,8.52,5.76,11.28,10.08,2.76,4.32,4.14,9.4,4.14,15.24s-1.38,10.8-4.14,15.12c-2.76,4.32-6.52,7.68-11.28,10.08-4.76,2.4-10.14,3.6-16.14,3.6s-11.4-1.2-16.2-3.6c-4.8-2.4-8.56-5.76-11.28-10.08-2.72-4.32-4.08-9.36-4.08-15.12s1.36-10.92,4.08-15.24ZM177.36,325.11c1.2,2.04,2.76,3.62,4.68,4.74,1.92,1.12,4.08,1.68,6.48,1.68s4.46-.56,6.42-1.68c1.96-1.12,3.52-2.7,4.68-4.74,1.16-2.04,1.74-4.5,1.74-7.38s-.58-5.36-1.74-7.44c-1.16-2.08-2.72-3.68-4.68-4.8-1.96-1.12-4.1-1.68-6.42-1.68s-4.56.56-6.48,1.68c-1.92,1.12-3.48,2.72-4.68,4.8-1.2,2.08-1.8,4.56-1.8,7.44s.6,5.34,1.8,7.38Z"/>
      <path class="cls-2" d="M248.16,325.35c1.28,2.12,3.06,3.78,5.34,4.98,2.28,1.2,4.74,1.8,7.38,1.8,2.24,0,4.38-.34,6.42-1.02,2.04-.68,3.92-1.62,5.64-2.82,1.72-1.2,3.14-2.68,4.26-4.44v17.64c-1.92,1.52-4.32,2.74-7.2,3.66-2.88.92-6.4,1.38-10.56,1.38-6.08,0-11.54-1.2-16.38-3.6-4.84-2.4-8.64-5.76-11.4-10.08-2.76-4.32-4.14-9.36-4.14-15.12s1.38-10.9,4.14-15.18c2.76-4.28,6.56-7.62,11.4-10.02,4.84-2.4,10.3-3.6,16.38-3.6,4.16,0,7.68.46,10.56,1.38,2.88.92,5.28,2.06,7.2,3.42v17.76c-1.12-1.76-2.58-3.24-4.38-4.44-1.8-1.2-3.74-2.12-5.82-2.76-2.08-.64-4.12-.96-6.12-.96-2.64,0-5.1.64-7.38,1.92-2.28,1.28-4.06,3-5.34,5.16-1.28,2.16-1.92,4.6-1.92,7.32,0,2.96.64,5.5,1.92,7.62Z"/>
      <path class="cls-2" d="M301.74,342.99c-4.68-2.36-8.3-5.7-10.86-10.02-2.56-4.32-3.84-9.4-3.84-15.24s1.24-11.04,3.72-15.36c2.48-4.32,6.06-7.64,10.74-9.96,4.68-2.32,10.22-3.48,16.62-3.48s11.8,1.1,16.2,3.3c4.4,2.2,7.76,5.38,10.08,9.54,2.32,4.16,3.48,9.2,3.48,15.12v2.58c0,.84-.08,1.54-.24,2.1h-50.4v-10.08h34.08l-4.32,5.52c.4-.56.74-1.26,1.02-2.1.28-.84.42-1.54.42-2.1,0-2.4-.44-4.48-1.32-6.24-.88-1.76-2.12-3.12-3.72-4.08-1.6-.96-3.48-1.44-5.64-1.44-2.72,0-5,.6-6.84,1.8-1.84,1.2-3.22,3.02-4.14,5.46-.92,2.44-1.42,5.5-1.5,9.18,0,3.36.48,6.24,1.44,8.64.96,2.4,2.4,4.22,4.32,5.46,1.92,1.24,4.28,1.86,7.08,1.86,3.2,0,5.94-.6,8.22-1.8,2.28-1.2,4.1-3,5.46-5.4l16.2,3.96c-2.88,5.44-6.78,9.52-11.7,12.24-4.92,2.72-10.9,4.08-17.94,4.08-6.4,0-11.94-1.18-16.62-3.54Z"/>
      <path class="cls-2" d="M376.92,345.33h-17.88v-55.2h17.88v55.2ZM389.82,306.57c-1.08-.56-2.42-.84-4.02-.84-1.76,0-3.32.48-4.68,1.44-1.36.96-2.4,2.36-3.12,4.2-.72,1.84-1.08,4.08-1.08,6.72l-4.32-6.36c0-4.4.86-8.32,2.58-11.76,1.72-3.44,3.98-6.16,6.78-8.16,2.8-2,5.72-3,8.76-3,2,0,3.92.4,5.76,1.2,1.84.8,3.24,1.92,4.2,3.36l-7.8,15.48c-.96-.96-1.98-1.72-3.06-2.28Z"/>
      <path class="cls-2" d="M432.48,371.73h-18.24l13.44-30.84-23.88-50.76h19.92l17.88,44.28-9.36-.12,17.64-44.16h18.6l-36,81.6Z"/>
      <path class="cls-2" d="M486.18,328.77c2.12,2.56,4.5,4.56,7.14,6,2.64,1.44,5.64,2.16,9,2.16,4.48,0,8.08-1.24,10.8-3.72,2.72-2.48,4.08-5.64,4.08-9.48s-.88-6.76-2.64-9c-1.76-2.24-4.06-4.06-6.9-5.46-2.84-1.4-5.86-2.66-9.06-3.78-2.08-.72-4.4-1.66-6.96-2.82-2.56-1.16-5-2.64-7.32-4.44-2.32-1.8-4.22-4.02-5.7-6.66-1.48-2.64-2.22-5.88-2.22-9.72,0-4.16,1.04-7.88,3.12-11.16,2.08-3.28,4.96-5.86,8.64-7.74,3.68-1.88,7.88-2.82,12.6-2.82s8.54.86,11.94,2.58c3.4,1.72,6.3,3.92,8.7,6.6,2.4,2.68,4.28,5.5,5.64,8.46l-8.76,5.04c-1.04-2.08-2.36-4.12-3.96-6.12-1.6-2-3.54-3.64-5.82-4.92-2.28-1.28-5.06-1.92-8.34-1.92-4.56,0-7.88,1.1-9.96,3.3-2.08,2.2-3.12,4.66-3.12,7.38,0,2.32.6,4.46,1.8,6.42,1.2,1.96,3.22,3.8,6.06,5.52,2.84,1.72,6.7,3.42,11.58,5.1,2.24.8,4.6,1.84,7.08,3.12,2.48,1.28,4.78,2.9,6.9,4.86,2.12,1.96,3.86,4.32,5.22,7.08,1.36,2.76,2.04,6.06,2.04,9.9s-.7,7-2.1,9.96c-1.4,2.96-3.32,5.48-5.76,7.56-2.44,2.08-5.2,3.68-8.28,4.8-3.08,1.12-6.3,1.68-9.66,1.68-4.56,0-8.78-.98-12.66-2.94-3.88-1.96-7.28-4.56-10.2-7.8-2.92-3.24-5.3-6.7-7.14-10.38l8.16-5.52c1.92,3.36,3.94,6.32,6.06,8.88Z"/>
      <path class="cls-2" d="M549.95,371.73h-10.8l15.12-34.2-21.12-47.4h11.4l17.52,43.2-3.96-.48,17.04-42.72h10.8l-36,81.6Z"/>
      <path class="cls-2" d="M627.35,301.41c-2-2.32-4.92-3.48-8.76-3.48-2.8,0-5.26.58-7.38,1.74-2.12,1.16-3.76,2.78-4.92,4.86-1.16,2.08-1.74,4.48-1.74,7.2v33.6h-9.6v-55.2h9.6v8.64c1.84-3.36,4.14-5.84,6.9-7.44,2.76-1.6,5.94-2.4,9.54-2.4,5.84,0,10.46,1.94,13.86,5.82,3.4,3.88,5.1,9.14,5.1,15.78v34.8h-9.6v-33.6c0-4.56-1-8-3-10.32Z"/>
      <path class="cls-2" d="M664.73,327.93c1.64,2.96,3.88,5.3,6.72,7.02,2.84,1.72,6.06,2.58,9.66,2.58,2.96,0,5.74-.46,8.34-1.38,2.6-.92,4.86-2.16,6.78-3.72,1.92-1.56,3.28-3.22,4.08-4.98v12c-1.92,2.24-4.66,3.98-8.22,5.22-3.56,1.24-7.22,1.86-10.98,1.86-5.36,0-10.2-1.24-14.52-3.72-4.32-2.48-7.74-5.9-10.26-10.26-2.52-4.36-3.78-9.3-3.78-14.82s1.26-10.56,3.78-14.88c2.52-4.32,5.94-7.72,10.26-10.2,4.32-2.48,9.16-3.72,14.52-3.72,3.76,0,7.42.62,10.98,1.86,3.56,1.24,6.3,2.98,8.22,5.22v12c-.8-1.84-2.16-3.52-4.08-5.04-1.92-1.52-4.18-2.74-6.78-3.66-2.6-.92-5.38-1.38-8.34-1.38-3.6,0-6.82.84-9.66,2.52-2.84,1.68-5.08,4.02-6.72,7.02-1.64,3-2.46,6.42-2.46,10.26s.82,7.24,2.46,10.2Z"/>
    </g>
    <path class="cls-5" d="M710.31,308.01v-12c0-2.39-.85-4.7-2.41-6.51-3.07-3.58-7.29-6.33-12.52-8.15-4.61-1.6-9.41-2.42-14.27-2.42-7.1,0-13.66,1.7-19.5,5.05-5.75,3.3-10.37,7.87-13.76,13.57-1.26-3.52-3.09-6.66-5.48-9.4-5.29-6.04-12.69-9.23-21.38-9.23-4.24,0-8.19.79-11.78,2.35-1.39-.73-2.98-1.15-4.66-1.15h-9.6c-1.62,0-3.15.4-4.51,1.08-1.37-.69-2.91-1.08-4.49-1.08h-10.8c-4.09,0-7.77,2.49-9.29,6.29l-5.96,14.95-6.08-15c-1.53-3.77-5.2-6.24-9.27-6.24h-7.81c.52-2.12.35-4.42-.63-6.54-1.78-3.86-4.22-7.54-7.28-10.95-3.22-3.59-7.13-6.57-11.64-8.85-4.8-2.43-10.33-3.66-16.45-3.66s-12.06,1.32-17.15,3.92c-5.28,2.7-9.49,6.5-12.53,11.29-2.81,4.42-4.35,9.4-4.62,14.8h-16.58c-4.09,0-7.77,2.49-9.29,6.29l-3.77,9.45-3.83-9.48c-1.53-3.78-5.2-6.26-9.27-6.26h-19.92c-1.21,0-2.39.23-3.5.64-3.05-1.3-6.27-1.96-9.58-1.96s-6.7.71-9.85,2.13c-1.21-.52-2.55-.81-3.95-.81h-17.88c-5.52,0-10,4.48-10,10v.99c-2.82-3.2-6.24-5.83-10.25-7.83-5.78-2.89-12.74-4.36-20.67-4.36s-15.01,1.52-21.06,4.52c-3.97,1.97-7.39,4.5-10.25,7.55-.62-2.17-1.94-4.1-3.83-5.44-2.75-1.95-6.09-3.56-9.94-4.79-3.91-1.25-8.36-1.85-13.6-1.85-7.61,0-14.61,1.56-20.82,4.64-6.14,3.04-11.1,7.34-14.8,12.74-3.67-5.45-8.59-9.77-14.66-12.83-6.15-3.1-13.09-4.67-20.64-4.67s-14.5,1.57-20.67,4.66c-2.07,1.04-3.99,2.23-5.79,3.55-1.99-2.66-4.65-4.74-7.96-6.18-3.1-1.34-6.38-2.03-9.74-2.03s-6.7.71-9.85,2.13c-1.21-.52-2.55-.81-3.95-.81h-17.88c-2.57,0-4.9.97-6.67,2.56.1-.29.2-.59.28-.9.7-2.76.19-5.69-1.4-8.05-3.17-4.7-6.99-8.91-11.35-12.51-4.52-3.73-9.75-6.66-15.55-8.72-5.78-2.06-12.28-3.1-19.31-3.1-7.78,0-15.16,1.25-21.92,3.73-6.87,2.52-12.98,6.17-18.15,10.86-5.29,4.79-9.44,10.62-12.32,17.32-2.85,6.63-4.29,14.03-4.29,22.01s1.41,15.34,4.19,22.02c2.79,6.72,6.77,12.6,11.81,17.5,5.05,4.9,11.09,8.7,17.94,11.3,6.71,2.54,14.12,3.83,22.02,3.83,8.53,0,16.31-1.58,23.11-4.68,6.89-3.15,12.74-7.6,17.37-13.25,1.55-1.89,2.96-3.89,4.23-5.98v11.27c0,5.52,4.48,10,10,10h17.88c5.52,0,10-4.48,10-10v-27.24c0-.45.02-.84.04-1.18,1.84,1.35,4.1,2.03,6.39,1.92.18,7.21,2.04,13.71,5.58,19.34,3.69,5.87,8.83,10.48,15.27,13.7,6.18,3.09,13.13,4.66,20.67,4.66s14.49-1.57,20.64-4.67c6.06-3.05,10.97-7.37,14.64-12.8,3.69,5.46,8.66,9.78,14.82,12.83,6.21,3.08,13.22,4.64,20.82,4.64,5.24,0,9.69-.61,13.6-1.85,4.02-1.28,7.51-3.08,10.37-5.35,1.68-1.33,2.85-3.15,3.41-5.17,2.91,3.13,6.39,5.73,10.42,7.76,0,0,0,0,0,0,6.07,3.06,13.18,4.61,21.12,4.61,8.72,0,16.38-1.79,22.78-5.33,2.9-1.6,5.53-3.58,7.9-5.87,0,5.52,4.48,10,10,10h17.88c5.52,0,10-4.48,10-10v-27.24c0-.45.02-.84.04-1.18,2.14,1.57,4.84,2.24,7.51,1.81,3.17-.51,5.9-2.51,7.34-5.37l.96-1.91,13.93,29.61-11.63,26.69c-1.35,3.09-1.05,6.65.8,9.47,1.85,2.82,4.99,4.52,8.37,4.52h18.24c3.96,0,7.55-2.34,9.15-5.96l20.84-47.24c.15.46.33.91.55,1.35,2.23,4.47,5.15,8.71,8.66,12.6,3.74,4.15,8.15,7.53,13.12,10.03,5.27,2.66,11.05,4.01,17.17,4.01,4.51,0,8.91-.77,13.08-2.28,4.19-1.52,8.01-3.74,11.35-6.59,3.51-2.99,6.31-6.66,8.31-10.89,1.72-3.64,2.72-7.64,2.98-11.92l5.66,12.7-13.33,30.14c-1.37,3.09-1.08,6.67.77,9.5,1.85,2.83,5,4.54,8.38,4.54h10.8c3.96,0,7.55-2.34,9.15-5.96l25.85-58.59v28.16c0,5.52,4.48,10,10,10h9.6c5.52,0,10-4.48,10-10v-33.6c0-1,.16-1.76.47-2.33.24-.43.52-.7.98-.96.62-.34,1.5-.52,2.58-.52.66,0,1.04.07,1.24.12.16.35.53,1.4.53,3.68v33.6c0,5.52,4.48,10,10,10h9.6c5.52,0,10-4.48,10-10v-4.3c3.12,4.28,7.02,7.79,11.66,10.46,5.83,3.35,12.39,5.05,19.5,5.05,4.86,0,9.66-.81,14.27-2.42,5.24-1.82,9.45-4.57,12.53-8.16,1.55-1.81,2.41-4.12,2.41-6.51v-12c0-4.63-3.17-8.64-7.65-9.72,4.47-1.08,7.65-5.09,7.65-9.72ZM101.21,288.21c.75-.39,1.44-.88,2.06-1.44-.31.88-.51,1.81-.56,2.78-.58-.11-1.18-.17-1.79-.17h-1.95l2.25-1.17ZM48.66,317.05c-1.32-1.11-2.42-2.49-3.34-4.17-1.38-2.53-2.08-5.75-2.08-9.55s.69-6.85,2.04-9.15c1.34-2.29,3.09-3.99,5.34-5.19,2.43-1.3,5.06-1.93,8.06-1.93,2.82,0,5.03.53,6.56,1.57.35.24.69.49,1.02.75h-7.82c-5.52,0-10,4.48-10,10v15.6c0,.71.07,1.41.22,2.08ZM264.13,321.63c-1.02.34-2.08.51-3.25.51-1.02,0-1.88-.21-2.72-.65-.67-.35-1.1-.74-1.43-1.29,0,0,0,0,0-.01-.39-.65-.48-1.69-.48-2.45,0-1.2.3-1.84.53-2.23.38-.64.88-1.11,1.62-1.53.79-.44,1.56-.64,2.49-.64.99,0,2.06.17,3.17.52,1.17.36,2.22.86,3.22,1.52.64.43,1.12.9,1.49,1.5.18.28.37.55.57.8-.2.26-.39.53-.57.81-.42.65-.91,1.16-1.54,1.61-.94.66-1.95,1.16-3.09,1.54ZM186.02,315.29c.42-.73.79-1,1.05-1.16.25-.15.65-.32,1.44-.32.58,0,1.02.11,1.45.36.27.16.57.39.91.98.31.56.48,1.45.48,2.58s-.15,1.95-.43,2.43c-.34.6-.66.83-.95,1-.44.25-.88.36-1.45.36-.79,0-1.18-.17-1.44-.32-.29-.17-.68-.45-1.1-1.17,0,0,0,0,0,0-.27-.46-.42-1.28-.42-2.31,0-.75.08-1.78.46-2.44ZM500.16,279.85c1.51,0,2.7.22,3.44.64,1.16.65,2.11,1.45,2.91,2.45,1.15,1.44,2.1,2.91,2.83,4.35.15.29.3.57.47.84-.01,0-.02,0-.03-.01-4.19-1.44-7.44-2.86-9.66-4.2-2.15-1.3-2.68-2.15-2.71-2.19-.24-.39-.33-.72-.34-1.19.01-.04.08-.16.24-.34.28-.11,1.12-.35,2.85-.35ZM467.98,316.03l6.07-13.76c1.26,1.41,2.64,2.7,4.13,3.86,2.93,2.28,6.07,4.18,9.32,5.65,2.82,1.28,5.46,2.35,7.78,3.15,2.81.98,5.48,2.1,7.94,3.31,1.5.74,2.63,1.61,3.46,2.67.19.24.5,1.1.5,2.83,0,1.25-.34,1.65-.82,2.09-.3.27-1.22,1.11-4.06,1.11-1.68,0-3.05-.31-4.21-.94-1.53-.84-2.92-2.01-4.22-3.6,0,0,0,0,0,0-1.74-2.1-3.45-4.61-5.08-7.46-1.38-2.42-3.71-4.15-6.42-4.78-2.71-.63-5.56-.1-7.87,1.46l-6.53,4.42ZM519.81,292.7c1.2-.19,2.37-.59,3.45-1.21.13.93.37,1.84.76,2.72l.88,1.98c-1.62-1.29-3.32-2.47-5.09-3.49ZM691.21,323.31s-.24.51-1.29,1.36c-1.02.83-2.3,1.52-3.81,2.05-1.54.54-3.17.81-5,.81s-3.2-.36-4.48-1.13c-1.35-.82-2.35-1.87-3.15-3.31,0,0,0,0,0,0-.81-1.46-1.21-3.21-1.21-5.35s.4-3.94,1.24-5.47c.78-1.42,1.74-2.44,3.04-3.21,1.28-.76,2.78-1.13,4.57-1.13s3.47.26,5,.81c1.55.55,2.87,1.25,3.91,2.07.68.54,1.03.98,1.12,1.19,1.28,2.95,3.85,5.01,6.82,5.73-2.91.71-5.44,2.71-6.75,5.58Z"/>
    <g>
      <path class="cls-2" d="M58.44,299.37h42.48c.4,6.72-.28,13-2.04,18.84-1.76,5.84-4.48,11-8.16,15.48-3.68,4.48-8.28,7.98-13.8,10.5-5.52,2.52-11.84,3.78-18.96,3.78-6.72,0-12.88-1.06-18.48-3.18-5.6-2.12-10.44-5.16-14.52-9.12s-7.26-8.68-9.54-14.16c-2.28-5.48-3.42-11.54-3.42-18.18s1.16-12.66,3.48-18.06c2.32-5.4,5.6-10.02,9.84-13.86,4.24-3.84,9.2-6.8,14.88-8.88,5.68-2.08,11.84-3.12,18.48-3.12,5.92,0,11.24.84,15.96,2.52,4.72,1.68,8.9,4.02,12.54,7.02,3.64,3,6.78,6.46,9.42,10.38l-18,9.36c-1.92-3.36-4.5-6.14-7.74-8.34-3.24-2.2-7.3-3.3-12.18-3.3s-8.9,1.04-12.78,3.12c-3.88,2.08-6.96,5.06-9.24,8.94-2.28,3.88-3.42,8.62-3.42,14.22s1.1,10.3,3.3,14.34c2.2,4.04,5.2,7.16,9,9.36,3.8,2.2,8.18,3.3,13.14,3.3,3.04,0,5.8-.38,8.28-1.14,2.48-.76,4.6-1.84,6.36-3.24,1.76-1.4,3.26-3.04,4.5-4.92,1.24-1.88,2.22-3.9,2.94-6.06h-22.32v-15.6Z"/>
      <path class="cls-2" d="M130.56,345.33h-17.88v-55.2h17.88v55.2ZM143.46,306.57c-1.08-.56-2.42-.84-4.02-.84-1.76,0-3.32.48-4.68,1.44-1.36.96-2.4,2.36-3.12,4.2-.72,1.84-1.08,4.08-1.08,6.72l-4.32-6.36c0-4.4.86-8.32,2.58-11.76,1.72-3.44,3.98-6.16,6.78-8.16,2.8-2,5.72-3,8.76-3,2,0,3.92.4,5.76,1.2,1.84.8,3.24,1.92,4.2,3.36l-7.8,15.48c-.96-.96-1.98-1.72-3.06-2.28Z"/>
      <path class="cls-2" d="M161.04,302.49c2.72-4.32,6.48-7.68,11.28-10.08,4.8-2.4,10.2-3.6,16.2-3.6s11.38,1.2,16.14,3.6c4.76,2.4,8.52,5.76,11.28,10.08,2.76,4.32,4.14,9.4,4.14,15.24s-1.38,10.8-4.14,15.12c-2.76,4.32-6.52,7.68-11.28,10.08-4.76,2.4-10.14,3.6-16.14,3.6s-11.4-1.2-16.2-3.6c-4.8-2.4-8.56-5.76-11.28-10.08-2.72-4.32-4.08-9.36-4.08-15.12s1.36-10.92,4.08-15.24ZM177.36,325.11c1.2,2.04,2.76,3.62,4.68,4.74,1.92,1.12,4.08,1.68,6.48,1.68s4.46-.56,6.42-1.68c1.96-1.12,3.52-2.7,4.68-4.74,1.16-2.04,1.74-4.5,1.74-7.38s-.58-5.36-1.74-7.44c-1.16-2.08-2.72-3.68-4.68-4.8-1.96-1.12-4.1-1.68-6.42-1.68s-4.56.56-6.48,1.68c-1.92,1.12-3.48,2.72-4.68,4.8-1.2,2.08-1.8,4.56-1.8,7.44s.6,5.34,1.8,7.38Z"/>
      <path class="cls-2" d="M248.16,325.35c1.28,2.12,3.06,3.78,5.34,4.98,2.28,1.2,4.74,1.8,7.38,1.8,2.24,0,4.38-.34,6.42-1.02,2.04-.68,3.92-1.62,5.64-2.82,1.72-1.2,3.14-2.68,4.26-4.44v17.64c-1.92,1.52-4.32,2.74-7.2,3.66-2.88.92-6.4,1.38-10.56,1.38-6.08,0-11.54-1.2-16.38-3.6-4.84-2.4-8.64-5.76-11.4-10.08-2.76-4.32-4.14-9.36-4.14-15.12s1.38-10.9,4.14-15.18c2.76-4.28,6.56-7.62,11.4-10.02,4.84-2.4,10.3-3.6,16.38-3.6,4.16,0,7.68.46,10.56,1.38,2.88.92,5.28,2.06,7.2,3.42v17.76c-1.12-1.76-2.58-3.24-4.38-4.44-1.8-1.2-3.74-2.12-5.82-2.76-2.08-.64-4.12-.96-6.12-.96-2.64,0-5.1.64-7.38,1.92-2.28,1.28-4.06,3-5.34,5.16-1.28,2.16-1.92,4.6-1.92,7.32,0,2.96.64,5.5,1.92,7.62Z"/>
      <path class="cls-2" d="M301.74,342.99c-4.68-2.36-8.3-5.7-10.86-10.02-2.56-4.32-3.84-9.4-3.84-15.24s1.24-11.04,3.72-15.36c2.48-4.32,6.06-7.64,10.74-9.96,4.68-2.32,10.22-3.48,16.62-3.48s11.8,1.1,16.2,3.3c4.4,2.2,7.76,5.38,10.08,9.54,2.32,4.16,3.48,9.2,3.48,15.12v2.58c0,.84-.08,1.54-.24,2.1h-50.4v-10.08h34.08l-4.32,5.52c.4-.56.74-1.26,1.02-2.1.28-.84.42-1.54.42-2.1,0-2.4-.44-4.48-1.32-6.24-.88-1.76-2.12-3.12-3.72-4.08-1.6-.96-3.48-1.44-5.64-1.44-2.72,0-5,.6-6.84,1.8-1.84,1.2-3.22,3.02-4.14,5.46-.92,2.44-1.42,5.5-1.5,9.18,0,3.36.48,6.24,1.44,8.64.96,2.4,2.4,4.22,4.32,5.46,1.92,1.24,4.28,1.86,7.08,1.86,3.2,0,5.94-.6,8.22-1.8,2.28-1.2,4.1-3,5.46-5.4l16.2,3.96c-2.88,5.44-6.78,9.52-11.7,12.24-4.92,2.72-10.9,4.08-17.94,4.08-6.4,0-11.94-1.18-16.62-3.54Z"/>
      <path class="cls-2" d="M376.92,345.33h-17.88v-55.2h17.88v55.2ZM389.82,306.57c-1.08-.56-2.42-.84-4.02-.84-1.76,0-3.32.48-4.68,1.44-1.36.96-2.4,2.36-3.12,4.2-.72,1.84-1.08,4.08-1.08,6.72l-4.32-6.36c0-4.4.86-8.32,2.58-11.76,1.72-3.44,3.98-6.16,6.78-8.16,2.8-2,5.72-3,8.76-3,2,0,3.92.4,5.76,1.2,1.84.8,3.24,1.92,4.2,3.36l-7.8,15.48c-.96-.96-1.98-1.72-3.06-2.28Z"/>
      <path class="cls-2" d="M432.48,371.73h-18.24l13.44-30.84-23.88-50.76h19.92l17.88,44.28-9.36-.12,17.64-44.16h18.6l-36,81.6Z"/>
      <path class="cls-2" d="M486.18,328.77c2.12,2.56,4.5,4.56,7.14,6,2.64,1.44,5.64,2.16,9,2.16,4.48,0,8.08-1.24,10.8-3.72,2.72-2.48,4.08-5.64,4.08-9.48s-.88-6.76-2.64-9c-1.76-2.24-4.06-4.06-6.9-5.46-2.84-1.4-5.86-2.66-9.06-3.78-2.08-.72-4.4-1.66-6.96-2.82-2.56-1.16-5-2.64-7.32-4.44-2.32-1.8-4.22-4.02-5.7-6.66-1.48-2.64-2.22-5.88-2.22-9.72,0-4.16,1.04-7.88,3.12-11.16,2.08-3.28,4.96-5.86,8.64-7.74,3.68-1.88,7.88-2.82,12.6-2.82s8.54.86,11.94,2.58c3.4,1.72,6.3,3.92,8.7,6.6,2.4,2.68,4.28,5.5,5.64,8.46l-8.76,5.04c-1.04-2.08-2.36-4.12-3.96-6.12-1.6-2-3.54-3.64-5.82-4.92-2.28-1.28-5.06-1.92-8.34-1.92-4.56,0-7.88,1.1-9.96,3.3-2.08,2.2-3.12,4.66-3.12,7.38,0,2.32.6,4.46,1.8,6.42,1.2,1.96,3.22,3.8,6.06,5.52,2.84,1.72,6.7,3.42,11.58,5.1,2.24.8,4.6,1.84,7.08,3.12,2.48,1.28,4.78,2.9,6.9,4.86,2.12,1.96,3.86,4.32,5.22,7.08,1.36,2.76,2.04,6.06,2.04,9.9s-.7,7-2.1,9.96c-1.4,2.96-3.32,5.48-5.76,7.56-2.44,2.08-5.2,3.68-8.28,4.8-3.08,1.12-6.3,1.68-9.66,1.68-4.56,0-8.78-.98-12.66-2.94-3.88-1.96-7.28-4.56-10.2-7.8-2.92-3.24-5.3-6.7-7.14-10.38l8.16-5.52c1.92,3.36,3.94,6.32,6.06,8.88Z"/>
      <path class="cls-2" d="M549.95,371.73h-10.8l15.12-34.2-21.12-47.4h11.4l17.52,43.2-3.96-.48,17.04-42.72h10.8l-36,81.6Z"/>
      <path class="cls-2" d="M627.35,301.41c-2-2.32-4.92-3.48-8.76-3.48-2.8,0-5.26.58-7.38,1.74-2.12,1.16-3.76,2.78-4.92,4.86-1.16,2.08-1.74,4.48-1.74,7.2v33.6h-9.6v-55.2h9.6v8.64c1.84-3.36,4.14-5.84,6.9-7.44,2.76-1.6,5.94-2.4,9.54-2.4,5.84,0,10.46,1.94,13.86,5.82,3.4,3.88,5.1,9.14,5.1,15.78v34.8h-9.6v-33.6c0-4.56-1-8-3-10.32Z"/>
      <path class="cls-2" d="M664.73,327.93c1.64,2.96,3.88,5.3,6.72,7.02,2.84,1.72,6.06,2.58,9.66,2.58,2.96,0,5.74-.46,8.34-1.38,2.6-.92,4.86-2.16,6.78-3.72,1.92-1.56,3.28-3.22,4.08-4.98v12c-1.92,2.24-4.66,3.98-8.22,5.22-3.56,1.24-7.22,1.86-10.98,1.86-5.36,0-10.2-1.24-14.52-3.72-4.32-2.48-7.74-5.9-10.26-10.26-2.52-4.36-3.78-9.3-3.78-14.82s1.26-10.56,3.78-14.88c2.52-4.32,5.94-7.72,10.26-10.2,4.32-2.48,9.16-3.72,14.52-3.72,3.76,0,7.42.62,10.98,1.86,3.56,1.24,6.3,2.98,8.22,5.22v12c-.8-1.84-2.16-3.52-4.08-5.04-1.92-1.52-4.18-2.74-6.78-3.66-2.6-.92-5.38-1.38-8.34-1.38-3.6,0-6.82.84-9.66,2.52-2.84,1.68-5.08,4.02-6.72,7.02-1.64,3-2.46,6.42-2.46,10.26s.82,7.24,2.46,10.2Z"/>
    </g>
  </g>
</svg>